<?xml version="1.0" encoding="UTF-8" standalone="no"?>
<svg
   xmlns:dc="http://purl.org/dc/elements/1.1/"
   xmlns:cc="http://creativecommons.org/ns#"
   xmlns:rdf="http://www.w3.org/1999/02/22-rdf-syntax-ns#"
   xmlns:svg="http://www.w3.org/2000/svg"
   xmlns="http://www.w3.org/2000/svg"
   xmlns:sodipodi="http://sodipodi.sourceforge.net/DTD/sodipodi-0.dtd"
   xmlns:inkscape="http://www.inkscape.org/namespaces/inkscape"
   width="256"
   height="256"
   version="1.1"
   id="svg12"
   sodipodi:docname="cinnamon-layout-256.svg"
   inkscape:export-filename="/home/akiverson/data/1-ai-data/dev/packages/cinnamon-layout/cinnamon-layout/resources/cinnamon-layout-256.png"
   inkscape:export-xdpi="384"
   inkscape:export-ydpi="384"
   inkscape:version="0.92.5 (2060ec1f9f, 2020-04-08)">
  <metadata
     id="metadata18">
    <rdf:RDF>
      <cc:Work
         rdf:about="">
        <dc:format>image/svg+xml</dc:format>
        <dc:type
           rdf:resource="http://purl.org/dc/dcmitype/StillImage" />
        <dc:title></dc:title>
      </cc:Work>
    </rdf:RDF>
  </metadata>
  <defs
     id="defs16" />
  <sodipodi:namedview
     pagecolor="#ffffff"
     bordercolor="#666666"
     borderopacity="1"
     objecttolerance="10"
     gridtolerance="10"
     guidetolerance="10"
     inkscape:pageopacity="0"
     inkscape:pageshadow="2"
     inkscape:window-width="1462"
     inkscape:window-height="1016"
     id="namedview14"
     showgrid="false"
     inkscape:zoom="1.84375"
     inkscape:cx="62.601746"
     inkscape:cy="71.57291"
     inkscape:window-x="0"
     inkscape:window-y="28"
     inkscape:window-maximized="0"
     inkscape:current-layer="svg12" />
  <g
     id="g824"
     transform="matrix(4.8,0,0,4.173913,-25.6,-812.07942)">
    <rect
       id="rect2"
       ry="2.5"
       rx="2.5"
       y="203"
       x="7"
       height="45"
       width="50"
       style="opacity:0.2" />
    <path
       inkscape:connector-curvature="0"
       id="path4"
       d="m 7,206.9 v 37.6 c 0,1.385 1.115,2.5 2.5,2.5 h 45 c 1.385,0 2.5,-1.115 2.5,-2.5 v -37.6 z"
       style="fill:#5294e2" />
    <path
       inkscape:connector-curvature="0"
       id="path6"
       d="M 9.5,202 C 8.115,202 7,203.115 7,204.5 v 2.5 h 50 v -2.5 c 0,-1.385 -1.115,-2.5 -2.5,-2.5 z"
       style="fill:#1d344f" />
    <path
       inkscape:connector-curvature="0"
       id="path8"
       d="m 21.6,242 c -1.44,0 -2.6,1.115 -2.6,2.5 v 2.5 h 26 v -2.5 c 0,-1.385 -1.16,-2.5 -2.6,-2.5 z"
       style="fill:#1d344f" />
    <path
       inkscape:connector-curvature="0"
       id="path10"
       d="M 9.5,202 C 8.115,202 7,203.115 7,204.5 v 1 C 7,204.115 8.115,203 9.5,203 h 45 c 1.385,0 2.5,1.115 2.5,2.5 v -1 c 0,-1.385 -1.115,-2.5 -2.5,-2.5 z"
       style="opacity:0.1;fill:#ffffff" />
  </g>
</svg>
