<?xml version="1.0" encoding="UTF-8" standalone="no"?>
<svg
   xmlns:dc="http://purl.org/dc/elements/1.1/"
   xmlns:cc="http://creativecommons.org/ns#"
   xmlns:rdf="http://www.w3.org/1999/02/22-rdf-syntax-ns#"
   xmlns:svg="http://www.w3.org/2000/svg"
   xmlns="http://www.w3.org/2000/svg"
   xmlns:sodipodi="http://sodipodi.sourceforge.net/DTD/sodipodi-0.dtd"
   xmlns:inkscape="http://www.inkscape.org/namespaces/inkscape"
   enable-background="new 0 0 512 512"
   height="512px"
   id="Layer_1"
   version="1.1"
   viewBox="0 0 512 512"
   width="512px"
   xml:space="preserve"
   inkscape:version="0.92.3 (2405546, 2018-03-11)"
   sodipodi:docname="menu-symbolic-invert-white.svg"><metadata
     id="metadata9"><rdf:RDF><cc:Work
         rdf:about=""><dc:format>image/svg+xml</dc:format><dc:type
           rdf:resource="http://purl.org/dc/dcmitype/StillImage" /><dc:title></dc:title></cc:Work></rdf:RDF></metadata><defs
     id="defs7" /><sodipodi:namedview
     pagecolor="#ffffff"
     bordercolor="#666666"
     borderopacity="1"
     objecttolerance="10"
     gridtolerance="10"
     guidetolerance="10"
     inkscape:pageopacity="0"
     inkscape:pageshadow="2"
     inkscape:window-width="1880"
     inkscape:window-height="1054"
     id="namedview5"
     showgrid="false"
     inkscape:zoom="0.92187498"
     inkscape:cx="63.603259"
     inkscape:cy="129.0635"
     inkscape:window-x="40"
     inkscape:window-y="0"
     inkscape:window-maximized="0"
     inkscape:current-layer="Layer_1"
     showguides="false"
     inkscape:pagecheckerboard="true"><inkscape:grid
       type="xygrid"
       id="grid812" /></sodipodi:namedview><path
     style="fill:#ffffff"
     d="M 256 0.5 A 255.50098 255.50098 0 0 0 0.5 256 A 255.50098 255.50098 0 0 0 256 511.50195 A 255.50098 255.50098 0 0 0 511.50195 256 A 255.50098 255.50098 0 0 0 256 0.5 z M 255.99609 6.2832031 C 255.99609 6.2832031 269.42034 6.2831819 279.30078 10.580078 C 279.30078 10.580078 282.70488 19.659554 285.12891 45.880859 C 288.09527 77.957852 300.11751 87.644877 315.08594 98.310547 L 315.08594 98.519531 C 318.65122 99.854947 322.15819 101.27228 325.5957 102.83789 L 325.7207 102.71484 C 343.84372 105.7534 359.19499 107.40639 383.97461 86.822266 C 404.23097 69.988775 413.06055 65.986328 413.06055 65.986328 C 423.07658 69.929123 432.57422 79.423828 432.57422 79.423828 C 432.57422 79.423828 442.067 88.916624 446.01562 98.9375 C 446.01562 98.9375 442.00243 107.76705 425.17578 128.02344 C 404.5897 152.80299 406.23783 168.15138 409.2832 186.27539 L 409.16016 186.40039 C 410.72676 189.84181 412.14994 193.35459 413.47852 196.91211 L 413.69336 196.91211 C 424.36295 211.87952 434.03825 223.90179 466.11523 226.86719 C 492.34922 229.28729 501.41797 232.69727 501.41797 232.69727 C 505.71487 242.56694 505.71484 256 505.71484 256 C 505.71484 256 505.71489 269.42232 501.42773 279.30078 C 501.42773 279.30078 492.33654 282.7088 466.11523 285.13281 C 434.03825 288.09918 424.35319 300.12338 413.69336 315.08789 L 413.47852 315.08789 C 412.14896 318.65323 410.72578 322.16111 409.16016 325.59961 L 409.2832 325.72461 C 406.24855 343.85059 404.5897 359.19796 425.17578 383.97656 C 442.01316 404.231 446.01563 413.0625 446.01562 413.0625 C 442.067 423.07851 432.57422 432.57617 432.57422 432.57617 C 432.57422 432.57617 423.08924 442.05916 413.07422 446.01953 C 413.07422 446.01953 404.23193 442.00536 383.97461 425.17578 C 359.19405 404.5936 343.84372 406.24175 325.7207 409.28711 L 325.5957 409.16211 C 322.15819 410.72872 318.65122 412.1392 315.08594 413.48047 L 315.08594 413.69531 C 300.13117 424.36488 288.09527 434.04218 285.12891 466.11914 C 282.71755 492.35021 279.30078 501.41992 279.30078 501.41992 C 269.43106 505.71681 255.99609 505.7168 255.99609 505.7168 C 255.99609 505.7168 242.58747 505.71683 232.70117 501.43164 C 232.70117 501.43164 229.28927 492.34237 226.86523 466.12109 C 223.89886 434.0441 211.88248 424.3571 196.91016 413.69727 L 196.91016 413.48242 C 193.35267 412.14117 189.83791 410.72969 186.39844 409.16406 L 186.27344 409.28906 C 168.15627 406.26414 152.80009 404.5936 128.02148 425.17578 C 107.76511 442.01513 98.939453 446.00977 98.939453 446.00977 C 88.923447 442.07382 79.419922 432.57617 79.419922 432.57617 C 79.419922 432.57617 69.943757 423.09023 65.984375 413.07422 C 65.984375 413.07422 69.99952 404.23195 86.828125 383.97656 C 107.40935 359.19699 105.76217 343.85059 102.71094 325.72461 L 102.83594 325.59961 C 101.26741 322.16111 99.852012 318.65323 98.515625 315.08789 L 98.306641 315.08789 C 87.63125 300.1341 77.954905 288.09918 45.878906 285.13281 C 19.650774 282.71854 10.582031 279.30078 10.582031 279.30078 C 6.2851381 269.43304 6.2851562 256 6.2851562 256 C 6.2851564 256 6.2860999 242.59131 10.572266 232.70898 C 10.572266 232.70898 19.661512 229.29216 45.884766 226.86719 C 77.959789 223.90178 87.647828 211.88538 98.306641 196.91211 L 98.515625 196.91211 C 99.851981 193.35457 101.26838 189.84181 102.83594 186.40039 L 102.71094 186.27539 C 105.73972 168.15137 107.40838 152.80202 86.826172 128.02344 C 69.986838 107.77291 65.988281 98.941406 65.988281 98.941406 C 69.931077 88.927357 79.427734 79.423828 79.427734 79.423828 C 79.427734 79.423828 88.908809 69.943772 98.929688 65.990234 C 98.929688 65.990234 107.77095 70.002442 128.02539 86.830078 C 152.80494 107.41226 168.1543 105.76509 186.27734 102.71484 L 186.39648 102.83203 C 189.83594 101.27128 193.35069 99.854947 196.9082 98.519531 L 196.9082 98.310547 C 211.8688 87.644877 223.89691 77.957852 226.86328 45.880859 C 229.28338 19.660531 232.69727 10.580078 232.69727 10.580078 C 242.56988 6.2831819 255.99609 6.2832031 255.99609 6.2832031 z M 255.99609 139.21094 C 191.4939 139.21094 139.20703 191.49779 139.20703 256 C 139.20703 320.50221 191.4939 372.78906 255.99609 372.78906 C 320.49732 372.78906 372.78516 320.50221 372.78516 256 C 372.78516 191.49779 320.49732 139.21094 255.99609 139.21094 z "
     id="path3" /></svg>